<svg xmlns="http://www.w3.org/2000/svg" xmlns:xlink="http://www.w3.org/1999/xlink" width="41.804" height="13.52" viewBox="0 0 41.804 13.52">
  <defs>
    <clipPath id="clip-path">
      <rect id="Rectangle_193" data-name="Rectangle 193" width="41.804" height="11.604" transform="translate(999.156 1567.24)" fill="none"/>
    </clipPath>
    <clipPath id="clip-path-2">
      <rect id="Rectangle_194" data-name="Rectangle 194" width="41.804" height="6.137" transform="translate(999.156 1572.704)" fill="none"/>
    </clipPath>
  </defs>
  <g id="Car" transform="translate(-999.156 -1567.24)">
    <g id="Group_33" data-name="Group 33">
      <g id="Group_3" data-name="Group 3">
        <path id="Clip_2-2" data-name="Clip 2-2" d="M999.156,1578.844h41.8v-11.6h-41.8Z" fill="none"/>
        <g id="Group_296" data-name="Group 296">
          <g id="Group_295" data-name="Group 295" clip-path="url(#clip-path)">
            <g id="Group_3-2" data-name="Group 3-2">
              <path id="Fill_1" data-name="Fill 1" d="M1000.307,1578.526a1.305,1.305,0,0,1-1.1-.654.483.483,0,0,1,0-.423,13.2,13.2,0,0,1,.193-2.072c.222-.909.533-1.587,2.369-2.445a30.851,30.851,0,0,1,6.32-1.531c1.064-.2,4.894-2.241,7.745-3.2a25.988,25.988,0,0,1,10.253-.815,33.181,33.181,0,0,1,8.655,2.242,34.828,34.828,0,0,0,4.465.924,13.746,13.746,0,0,1,1.03,2.777c.241.8.481.7.653,1.156a5.967,5.967,0,0,1-.275,2.821c-.292.515-1.46.516-2.593.642s-5.7.58-6.629.58H1007.13c-.722,0-1.615.313-2.336.313s-4.482-.313-4.482-.313" fill="#dee2e5"/>
            </g>
          </g>
        </g>
      </g>
      <g id="Group_6" data-name="Group 6">
        <path id="Clip_5-2" data-name="Clip 5-2" d="M999.156,1578.841h41.8V1572.7h-41.8Z" fill="none"/>
        <g id="Group_298" data-name="Group 298">
          <g id="Group_297" data-name="Group 297" clip-path="url(#clip-path-2)">
            <g id="Group_6-2" data-name="Group 6-2">
              <path id="Fill_4" data-name="Fill 4" d="M999.4,1575.378a4.411,4.411,0,0,1,.151-.507l40.5-2.167c.074.236.14.451.191.622.24.8.48.7.652,1.157a5.98,5.98,0,0,1-.275,2.824c-.292.517-1.451.521-2.589.645s-5.705.578-6.633.578h-24.266c-.721,0-1.614.314-2.336.314s-4.482-.314-4.482-.314a1.307,1.307,0,0,1-1.1-.655.483.483,0,0,1,0-.423,13.22,13.22,0,0,1,.193-2.074" fill="#dee2e5"/>
            </g>
          </g>
        </g>
      </g>
      <path id="Fill_7" data-name="Fill 7" d="M1032.025,1571.342a1.235,1.235,0,0,1,.169,1.316c-.13.224-1.237,1.328-2.309,2.4-.777.774-1.51,1.506-1.86,1.888a2.708,2.708,0,0,1-2.217.968h-13.955c-.62,0-.719-.128-.808-.324a12.222,12.222,0,0,1-.4-2.846,8.719,8.719,0,0,1,.125-2.878,4.488,4.488,0,0,0-.577.089c-.445.092-1.067.173-1.733.247h0c-.462.054-.942.1-1.4.143-.842.083-1.568.154-1.861.22-.356.081-1.312.372-2.134.622s-1.534.466-1.664.481a1.106,1.106,0,0,1-.583-.207l.089-.058a.953.953,0,0,0,.479.172c.119-.013.86-.238,1.644-.477.837-.255,1.784-.543,2.14-.622.3-.067,1.029-.139,1.874-.222.445-.043.916-.09,1.361-.139a7.682,7.682,0,0,0,.582-.807c0-.027-.1-.066-.247-.1l.146-.056a.373.373,0,0,1,.187.1.088.088,0,0,1,.011.082,6.48,6.48,0,0,1-.541.762c.627-.07,1.208-.145,1.627-.234a3.691,3.691,0,0,1,.669-.095h.07l-.021.06a8.174,8.174,0,0,0-.142,2.908,12.284,12.284,0,0,0,.4,2.816c.062.144.115.266.712.266h9.821c0-.309-.011-2.12,0-4.171a8.425,8.425,0,0,1,.3-2.9l.095.036a8.658,8.658,0,0,0-.293,2.865c-.011,2.051,0,3.863,0,4.171h4.035a2.591,2.591,0,0,0,2.138-.939c.351-.38,1.085-1.117,1.864-1.892,1.066-1.063,2.169-2.163,2.293-2.377a1.156,1.156,0,0,0-.166-1.222c-.1-.149-.2-.287-.312-.434a8.017,8.017,0,0,1-.615-.921l.089-.042a8.047,8.047,0,0,0,.611.911c.111.147.215.287.316.437" fill="#fff"/>
      <path id="Fill_9" data-name="Fill 9" d="M1032.6,1574.336a3.586,3.586,0,0,1,3.736,3.411,3.018,3.018,0,0,1-.024.38c-1.8.177-4.273.405-4.929.405h-2.415a3.114,3.114,0,0,1-.1-.785,3.585,3.585,0,0,1,3.735-3.411" fill="#616161"/>
      <path id="Fill_11" data-name="Fill 11" d="M1007.131,1578.53c-.722,0-1.615.314-2.337.314-.314,0-1.2-.063-2.109-.127a3.144,3.144,0,0,1-.151-.972,3.751,3.751,0,0,1,7.471,0,3.148,3.148,0,0,1-.1.785h-2.771" fill="#616161"/>
      <path id="Fill_13" data-name="Fill 13" d="M1009.567,1577.746a3.314,3.314,0,1,0-3.3,3.011,3.167,3.167,0,0,0,3.3-3.011" fill="#404040"/>
      <path id="Fill_15" data-name="Fill 15" d="M1008.522,1577.746a2.264,2.264,0,1,0-2.254,2.058,2.162,2.162,0,0,0,2.254-2.058" fill="#efefef"/>
      <path id="Fill_17" data-name="Fill 17" d="M1035.9,1577.746a3.314,3.314,0,1,0-3.3,3.011,3.168,3.168,0,0,0,3.3-3.011" fill="#404040"/>
      <path id="Fill_19" data-name="Fill 19" d="M1034.855,1577.746a2.264,2.264,0,1,0-2.254,2.058,2.162,2.162,0,0,0,2.254-2.058" fill="#efefef"/>
      <path id="Fill_21" data-name="Fill 21" d="M1021.949,1567.71a23.242,23.242,0,0,1,11.125,2.035,15.263,15.263,0,0,1-3.3.878c-.695.074-6.472.416-10.041.675s-10.3.752-10.3.752,1.07-.706,2.307-1.411a26.757,26.757,0,0,1,6.148-2.553,21.941,21.941,0,0,1,4.06-.376" fill="#f3f3f3"/>
      <path id="Fill_23" data-name="Fill 23" d="M1021.036,1571.025l-1.31.089c-2.381.169-6.158.445-8.417.61-.442.032-.527-.294-.155-.516.224-.134.46-.272.7-.411a26.705,26.705,0,0,1,6.082-2.529,19.165,19.165,0,0,1,3.5-.356h.063c.094,0,.1.134.08.245s-.37,2.587-.4,2.7-.021.153-.15.162" fill="#404040"/>
      <path id="Fill_25" data-name="Fill 25" d="M1005.173,1572.515a11.748,11.748,0,0,1-2.578,1.672c-1.006.423-2.41.682-2.462.435s.58-.895,1.469-1.236a18.27,18.27,0,0,1,3.571-.871" fill="#f3f3f3"/>
      <path id="Fill_27" data-name="Fill 27" d="M1030.466,1569.872c0,.244-.044.445-.479.534-.092.015-.174.027-.237.034-.33.033-1.82.128-3.706.249-.95.061-2.012.128-3.064.2h0s-.225.005-.232-.172.069-2.634.069-2.7a.141.141,0,0,1,.117-.143h.089a26.805,26.805,0,0,1,6.226.725,1.866,1.866,0,0,1,1.217,1.268" fill="#404040"/>
      <path id="Fill_29" data-name="Fill 29" d="M1040.235,1573.328c.008.029.017.053.025.079-.928-.406-3.647-1.287-4.03-1.454-.4-.17-.432-.413-.394-.445s2.638-.047,3.239,0a1.056,1.056,0,0,1,.66.258c.192.559.385,1.182.5,1.562" fill="#ffa577"/>
      <path id="Fill_31" data-name="Fill 31" d="M999.182,1577.524c.007-.023.014-.047.023-.07.043-.123-.007-.861.108-1.635h.923c.411,0,.657.3.552.637l-.172.572a.814.814,0,0,1-.769.5Z" fill="#dee2e5"/>
    </g>
  </g>
</svg>
