<svg xmlns="http://www.w3.org/2000/svg" xmlns:xlink="http://www.w3.org/1999/xlink" width="87" height="87" viewBox="0 0 87 87">
  <defs>
    <clipPath id="clip-path">
      <path id="Path_14" data-name="Path 14" d="M158.094,2929.421a14.357,14.357,0,0,1-2.494-8.156c0-7.458,5.538-13.594,12.49-13.594,7.493,0,13.283,4.683,17.578,12.234.667,1.172,1.277,2.379,1.832,3.6.555-1.225,1.165-2.432,1.832-3.6,4.295-7.551,10.085-12.234,17.578-12.234,6.952,0,12.49,6.136,12.49,13.594a14.357,14.357,0,0,1-2.494,8.156h11.375A2.719,2.719,0,0,1,231,2932.14h0v16.312a2.718,2.718,0,0,1-2.719,2.719H146.719a2.718,2.718,0,0,1-2.719-2.719V2932.14a2.719,2.719,0,0,1,2.719-2.719Zm10,5.438H149.437v10.875h76.125v-10.875H168.094Zm16-5.438a42.043,42.043,0,0,0-3.061-6.8c-3.433-6.039-7.733-9.512-12.943-9.512-3.886,0-7.136,3.6-7.136,8.156s3.246,8.156,7.136,8.156Zm22.817,0c3.89,0,7.136-3.6,7.136-8.156s-3.25-8.156-7.136-8.156c-5.211,0-9.5,3.473-12.943,9.516a42.046,42.046,0,0,0-3.061,6.8Zm9.832,59.812v-29.906a2.78,2.78,0,0,1,5.558,0v32.625a2.749,2.749,0,0,1-2.779,2.719H158.379a2.749,2.749,0,0,1-2.779-2.718h0v-32.625a2.78,2.78,0,0,1,5.558,0v29.907Z" fill="none"/>
    </clipPath>
  </defs>
  <g id="icon" transform="translate(-144 -2907.671)">
    <g id="Group_41" data-name="Group 41">
      <g id="Group_40" data-name="Group 40" clip-path="url(#clip-path)">
        <g id="Icon-2">
          <path id="Path_67" data-name="Path 67" d="M130.406,2894.077H244.593v114.188H130.406Z" fill="#323643"/>
        </g>
      </g>
    </g>
  </g>
</svg>
