<svg xmlns="http://www.w3.org/2000/svg" width="35.812" height="27.929" viewBox="0 0 35.812 27.929">
  <g id="Group_56" data-name="Group 56" transform="translate(-3160.085 -2058.789)">
    <path id="Path_15" data-name="Path 15" d="M3166.6,2086.656V2084.8a1.085,1.085,0,0,0-1.167-1.174,1.21,1.21,0,0,0-1.045.525,1.074,1.074,0,0,0-.984-.525.992.992,0,0,0-.861.432v-.37h-.645v2.966h.645v-1.638c0-.525.277-.772.707-.772s.646.278.646.772v1.638h.646v-1.638a.681.681,0,0,1,.706-.772c.431,0,.646.278.646.772v1.638Zm9.561-2.966h-1.046v-.9h-.645v.9h-.584v.587h.584v1.36c0,.678.277,1.081,1.015,1.081a1.7,1.7,0,0,0,.8-.217l-.184-.556a1,1,0,0,1-.553.154c-.308,0-.432-.185-.432-.494v-1.328h1.046Zm5.472-.062a.867.867,0,0,0-.769.432v-.37h-.645v2.966h.645v-1.669c0-.494.215-.772.615-.772a1.768,1.768,0,0,1,.4.062l.185-.618A2.008,2.008,0,0,0,3181.634,2083.628Zm-8.27.309a2.1,2.1,0,0,0-1.2-.309c-.737,0-1.229.371-1.229.958,0,.494.368.772,1.014.865l.307.031c.338.062.523.155.523.308,0,.217-.247.371-.677.371a1.692,1.692,0,0,1-.983-.308l-.307.494a2.164,2.164,0,0,0,1.26.371c.86,0,1.352-.4,1.352-.958,0-.526-.4-.8-1.014-.9l-.308-.031c-.277-.031-.492-.093-.492-.279,0-.216.215-.339.554-.339a2.221,2.221,0,0,1,.922.247Zm17.153-.309a.865.865,0,0,0-.768.432v-.37h-.645v2.966h.645v-1.669c0-.494.215-.772.615-.772a1.785,1.785,0,0,1,.4.062l.183-.618A2,2,0,0,0,3190.517,2083.628Zm-8.238,1.545a1.48,1.48,0,0,0,1.568,1.545,1.523,1.523,0,0,0,1.046-.341l-.308-.524a1.241,1.241,0,0,1-.769.278.876.876,0,0,1-.892-.958.91.91,0,0,1,.892-.958,1.242,1.242,0,0,1,.769.278l.308-.526a1.532,1.532,0,0,0-1.046-.339A1.481,1.481,0,0,0,3182.279,2085.173Zm5.964,0v-1.483h-.646v.37a1.109,1.109,0,0,0-.922-.432,1.547,1.547,0,0,0,0,3.09,1.032,1.032,0,0,0,.922-.433v.371h.646Zm-2.367,0a.893.893,0,1,1,1.782,0,.893.893,0,1,1-1.782,0Zm-7.716-1.545a1.546,1.546,0,0,0,.031,3.09,1.868,1.868,0,0,0,1.2-.4l-.308-.462a1.462,1.462,0,0,1-.86.308.831.831,0,0,1-.892-.71h2.182v-.247A1.362,1.362,0,0,0,3178.16,2083.628Zm0,.556a.72.72,0,0,1,.738.711h-1.537A.779.779,0,0,1,3178.16,2084.184Zm16.016.989v-2.657h-.646v1.544a1.11,1.11,0,0,0-.922-.432,1.547,1.547,0,0,0,0,3.09,1.033,1.033,0,0,0,.922-.433v.371h.646Zm-2.367,0a.893.893,0,1,1,1.782,0,.893.893,0,1,1-1.782,0Zm-21.58,0v-1.483h-.645v.37a1.111,1.111,0,0,0-.922-.432,1.547,1.547,0,0,0,0,3.09,1.033,1.033,0,0,0,.922-.433v.371h.645Zm-2.4,0a.894.894,0,1,1,1.783,0,.894.894,0,1,1-1.783,0Z"/>
    <path id="Path_16" data-name="Path 16" d="M3182.833,2061.168h-9.684v17.486h9.684Z" fill="#ff5f00"/>
    <path id="Path_17" data-name="Path 17" d="M3173.764,2069.911a11.172,11.172,0,0,1,4.211-8.743,10.959,10.959,0,0,0-6.823-2.379,11.122,11.122,0,0,0,0,22.244,10.959,10.959,0,0,0,6.823-2.379A11.126,11.126,0,0,1,3173.764,2069.911Z" fill="#eb001b"/>
    <path id="Path_18" data-name="Path 18" d="M3195.9,2069.911a11.088,11.088,0,0,1-11.066,11.122,10.963,10.963,0,0,1-6.824-2.379,11.184,11.184,0,0,0,0-17.486,10.963,10.963,0,0,1,6.824-2.379A11.107,11.107,0,0,1,3195.9,2069.911Z" fill="#f79e1b"/>
  </g>
</svg>
