<svg xmlns="http://www.w3.org/2000/svg" width="32.862" height="20.879" viewBox="0 0 32.862 20.879">
  <g id="Icon" transform="translate(-1676.406 -1535.492)">
    <g id="Icon-2">
      <path id="Fill_1" data-name="Fill 1" d="M1694.727,1552.792a10.416,10.416,0,0,0,.745-12.757,10.726,10.726,0,0,0-.745-.954,10.441,10.441,0,1,0-7.864,17.29,10.365,10.365,0,0,0,6.023-1.921h0c.068-.047.126-.1.193-.149a10.551,10.551,0,0,0,1.64-1.508" fill="#d8143a"/>
      <path id="Fill_3" data-name="Fill 3" d="M1698.829,1535.493a10.315,10.315,0,0,0-6,1.921,10.579,10.579,0,0,1,1.835,1.658,11,11,0,0,1,.738.956,10.3,10.3,0,0,1,.626,1.036,10.466,10.466,0,0,1-1.364,11.728,10.574,10.574,0,0,1-1.641,1.509c-.066.049-.124.106-.191.149a10.329,10.329,0,0,0,6,1.921,10.439,10.439,0,0,0,0-20.878" fill="#ffb655"/>
    </g>
  </g>
</svg>
