<svg xmlns="http://www.w3.org/2000/svg" width="14.288" height="58.615" viewBox="0 0 14.288 58.615">
  <g id="Group_219" data-name="Group 219" transform="translate(-2903.842 -1070.112)">
    <path id="Rectangle_Copy" data-name="Rectangle Copy" d="M2911.221,1070.112h0a5.34,5.34,0,0,1,5.34,5.34h0a5.34,5.34,0,0,1-5.34,5.34h0a5.34,5.34,0,0,1-5.34-5.34h0A5.34,5.34,0,0,1,2911.221,1070.112Z" fill="#323643"/>
    <path id="Rectangle_Copy_7" data-name="Rectangle Copy 7" d="M2909.835,1100.778v-2.773h2.772v2.773Zm0-8.317v-2.772h2.772v2.772Z" fill="#222b45"/>
    <g id="Set_location_on_map-2" data-name="Set location on map-2">
      <g id="ic_location_on_24px" data-name="ic location on 24px">
        <path id="ic_location_on_24px-2" data-name="ic location on 24px-2" d="M2910.986,1108.316a7.144,7.144,0,0,0-7.144,7.144c0,5.358,7.144,13.267,7.144,13.267s7.144-7.909,7.144-13.267A7.145,7.145,0,0,0,2910.986,1108.316Zm0,9.695a2.551,2.551,0,1,1,2.551-2.551A2.552,2.552,0,0,1,2910.986,1118.011Z" fill="#5764c1"/>
      </g>
    </g>
  </g>
</svg>
